<svg xmlns="http://www.w3.org/2000/svg" width="284" height="288" viewBox="0 0 284 288" fill="none"><path d="M141.818 287.202C133.554 287.202 126.224 277.824 118.354 276.457C110.265 275.047 100.161 281.343 92.6127 278.595C84.9325 275.803 81.2677 264.506 74.2738 260.478C67.2215 256.422 55.5552 258.879 49.3644 253.688C43.1443 248.483 43.5678 236.619 38.3406 230.425C33.128 224.26 21.3158 222.617 17.2421 215.594C13.1976 208.644 17.6655 197.638 14.8621 189.99C12.1171 182.473 1.57516 176.904 0.158861 168.849C-1.21364 161.013 6.75853 152.202 6.75853 143.972C6.75853 135.743 -1.21364 126.946 0.158861 119.109C1.57516 111.054 12.1171 105.486 14.8621 97.9688C17.6655 90.3209 13.1976 79.3144 17.2421 72.3645C21.3158 65.3419 33.1426 63.7134 38.3406 57.5341C43.5678 51.3402 43.1443 39.4759 49.3644 34.2707C55.5552 29.08 67.2361 31.5518 74.2738 27.4807C81.2531 23.4532 84.9325 12.1414 92.6127 9.36429C100.161 6.63084 110.265 12.912 118.354 11.5016C126.224 10.1349 133.554 0.756836 141.818 0.756836C150.082 0.756836 157.412 10.1349 165.282 11.5016C173.371 12.912 183.475 6.61631 191.024 9.36429C198.704 12.1559 202.369 23.4532 209.363 27.4807C216.415 31.5372 228.081 29.08 234.272 34.2707C240.492 39.4759 240.069 51.3402 245.296 57.5341C250.508 63.6989 262.321 65.3419 266.394 72.3645C270.439 79.3144 265.971 90.3209 268.774 97.9688C271.519 105.486 282.061 111.054 283.477 119.109C284.85 126.946 276.878 135.757 276.878 143.987C276.878 152.216 284.85 161.027 283.477 168.864C282.061 176.919 271.519 182.488 268.774 190.005C265.985 197.652 270.439 208.659 266.394 215.609C262.321 222.632 250.494 224.26 245.296 230.439C240.069 236.633 240.492 248.498 234.272 253.703C228.081 258.893 216.4 256.422 209.363 260.493C202.383 264.52 198.704 275.832 191.024 278.609C183.475 281.343 173.371 275.061 165.282 276.472C157.412 277.838 150.082 287.217 141.818 287.217V287.202Z" fill="url(#paint0_linear_1_274)"></path><path d="M141.818 273.328C213.876 273.328 272.291 215.42 272.291 143.987C272.291 72.5536 213.876 14.6458 141.818 14.6458C69.7601 14.6458 11.3454 72.5536 11.3454 143.987C11.3454 215.42 69.7601 273.328 141.818 273.328Z" fill="#2D2D2D"></path><path d="M141.818 265.515C209.056 265.515 263.564 211.105 263.564 143.987C263.564 76.8683 209.056 22.4583 141.818 22.4583C74.58 22.4583 20.0727 76.8683 20.0727 143.987C20.0727 211.105 74.58 265.515 141.818 265.515Z" fill="url(#paint1_linear_1_274)"></path><path d="M28.8184 122.375L31.5967 123.009L32.2831 120.033L44.4649 122.812L45.2591 119.369L30.299 115.955L28.8184 122.375Z" fill="white"></path><path d="M47.8155 111.874C49.0436 108.304 47.2274 104.758 42.4351 103.127C37.6429 101.496 34.0236 103.192 32.7955 106.761C31.5745 110.311 33.3836 113.877 38.1759 115.508C42.9681 117.139 46.5945 115.423 47.8155 111.874ZM44.9733 110.906C44.4054 112.557 42.6386 113.246 39.3401 112.124C36.0415 111.001 35.0698 109.38 35.6377 107.729C36.2127 106.057 37.9795 105.368 41.278 106.491C44.5766 107.613 45.5483 109.235 44.9733 110.906Z" fill="white"></path><path d="M53.045 99.4915C54.7464 96.1193 53.4282 92.3623 48.9013 90.1026C44.3743 87.8428 40.558 89.0369 38.8566 92.4091C37.1649 95.7618 38.4733 99.5383 43.0003 101.798C47.5273 104.058 51.3534 102.844 53.045 99.4915ZM50.3602 98.1514C49.5734 99.7108 47.7292 100.157 44.6132 98.6013C41.4973 97.0459 40.7546 95.3087 41.5414 93.7493C42.338 92.1704 44.1822 91.7245 47.2982 93.2799C50.4141 94.8353 51.1568 96.5725 50.3602 98.1514Z" fill="white"></path><path d="M52.1474 86.1478C53.4522 84.341 53.0426 82.1419 50.9234 80.6277C48.8042 79.1136 46.5781 79.4297 45.2733 81.2365C43.9685 83.0432 44.3831 85.2729 46.4845 86.7743C48.586 88.2756 50.8426 87.9546 52.1474 86.1478ZM57.1015 91.3253L58.6237 89.2174L52.2723 71.8439L50.7501 73.9518L57.1015 91.3253ZM50.6871 85.1045C50.1371 85.8661 49.0944 85.9268 47.7765 84.9852C46.4587 84.0437 46.1836 83.0415 46.7336 82.2798C47.2965 81.5004 48.3085 81.4448 49.6442 82.3991C50.9798 83.3533 51.25 84.3251 50.6871 85.1045ZM64.1004 81.9328C65.4052 80.126 64.9906 77.8964 62.8892 76.395C60.7878 74.8936 58.5311 75.2147 57.2263 77.0215C55.9344 78.8105 56.349 81.0401 58.4504 82.5415C60.5518 84.0429 62.8085 83.7218 64.1004 81.9328ZM62.6401 80.8894C62.0901 81.6511 61.0652 81.7245 59.7296 80.7702C58.3939 79.8159 58.1366 78.8265 58.6866 78.0648C59.2495 77.2854 60.2794 77.2425 61.5972 78.184C62.915 79.1256 63.203 80.1101 62.6401 80.8894Z" fill="white"></path><path d="M70.4015 74.409L75.6286 69.8189C79.3927 66.5134 79.9707 61.991 76.8942 58.5249C73.8177 55.0589 69.2344 55.0688 65.4703 58.3743L60.2432 62.9644L70.4015 74.409ZM71.1343 69.8961L64.8361 62.8005L67.2688 60.6642C69.5536 58.6578 72.2539 58.7013 74.1985 60.8922C76.1431 63.083 75.8518 65.7535 73.567 67.7599L71.1343 69.8961Z" fill="white"></path><path d="M83.3034 63.6654L86.2149 61.6414L77.4222 49.1281L74.5107 51.1521L83.3034 63.6654Z" fill="white"></path><path d="M89.9632 41.7357L94.4312 49.8699L83.267 45.3747L80.6885 46.7759L88.0476 60.1733L91.1263 58.5002L86.6583 50.3661L97.8418 54.8509L100.401 53.4601L93.042 40.0627L89.9632 41.7357Z" fill="white"></path><path d="M107.334 34.6736L109.331 40.3558L102.749 42.6446L100.752 36.9624L97.3984 38.1284L102.464 52.5397L105.817 51.3737L103.74 45.4651L110.322 43.1762L112.399 49.0849L115.752 47.9189L110.687 33.5076L107.334 34.6736Z" fill="white"></path><path d="M120.916 44.014L120.257 40.5423L127.259 39.2263L126.746 36.5261L119.744 37.8421L119.125 34.5847L127.054 33.0945L126.525 30.3086L115.127 32.4507L117.977 47.4518L129.655 45.2571L129.125 42.4712L120.916 44.014Z" fill="white"></path><path d="M131.24 45.2521L134.778 44.9374L133.411 29.7315L129.873 30.0461L131.24 45.2521Z" fill="white"></path><path d="M150.737 44.824L147.369 39.8661C149.377 39.0454 150.564 37.3836 150.599 35.0939C150.651 31.6702 148.117 29.5166 144.017 29.4554L137.374 29.3562L137.144 44.6211L140.696 44.6741L140.76 40.4218L143.851 40.4679L144.027 40.4705L146.922 44.7671L150.737 44.824ZM147.003 35.0402C146.978 36.6975 145.867 37.6843 143.696 37.6519L140.802 37.6087L140.883 32.2878L143.777 32.331C145.947 32.3634 147.029 33.3611 147.003 35.0402Z" fill="white"></path><path d="M159.168 46.4653C163.919 47.2952 168.02 44.6235 168.812 40.134C169.605 35.6445 166.665 31.7431 161.914 30.9132C157.141 30.0796 153.058 32.7765 152.27 37.2445C151.481 41.7125 154.395 45.6317 159.168 46.4653ZM159.691 43.501C156.992 43.0294 155.307 40.7201 155.811 37.8632C156.316 35.0062 158.691 33.4061 161.39 33.8776C164.09 34.3491 165.775 36.6584 165.27 39.5154C164.766 42.3723 162.391 43.9725 159.691 43.501Z" fill="white"></path><path d="M173.561 49.5403L180.004 52.1933C184.643 54.1037 188.981 52.6327 190.759 48.3608C192.537 44.0888 190.514 39.9982 185.875 38.0878L179.433 35.4348L173.561 49.5403ZM177.959 48.2118L181.599 39.4664L184.597 40.7011C187.413 41.8607 188.561 44.2924 187.437 46.9926C186.313 49.6928 183.773 50.6061 180.957 49.4465L177.959 48.2118Z" fill="white"></path><path d="M193.405 55.5664L195.242 52.542L201.342 56.2064L202.77 53.8542L196.67 50.1898L198.393 47.3521L205.3 51.5013L206.774 49.0744L196.845 43.1099L188.91 56.178L199.083 62.2891L200.556 59.8622L193.405 55.5664Z" fill="white"></path><path d="M222.947 62.3653L212.072 67.2736L215.982 56.0769L213.141 53.5117L207.728 69.2427L210.326 71.5881L225.561 64.7253L222.947 62.3653Z" fill="white"></path><path d="M219.467 81.8261C222.491 85.5643 227.346 86.2423 230.916 83.3849C234.486 80.5275 234.86 75.6659 231.836 71.9277C228.798 68.1724 223.94 67.5251 220.387 70.3689C216.834 73.2126 216.43 78.0708 219.467 81.8261ZM221.825 79.9393C220.107 77.8153 220.369 74.9739 222.641 73.1556C224.913 71.3372 227.76 71.6904 229.478 73.8144C231.196 75.9384 230.934 78.7798 228.662 80.5981C226.39 82.4165 223.543 82.0634 221.825 79.9393Z" fill="white"></path><path d="M225.486 89.4083L231.212 99.0385L233.703 97.573L229.786 90.984L240.506 84.6781L238.697 81.637L225.486 89.4083Z" fill="white"></path><path d="M232.128 101.323L233.601 104.538L244.934 99.4012L246.971 103.847L249.605 102.653L244.058 90.5469L241.424 91.7407L243.461 96.1862L232.128 101.323Z" fill="white"></path><path d="M238.908 119.725L239.995 123.272L252.676 112.291L251.653 108.953L234.977 106.895L236.038 110.358L239.581 110.698L241.658 117.478L238.908 119.725ZM242.493 111L248.824 111.612L243.912 115.632L242.493 111Z" fill="white"></path><path d="M89.3871 240.83C88.3845 240.793 87.5344 240.498 86.7154 240.021C84.2214 238.57 83.5028 235.842 84.9287 233.417C86.3764 230.955 89.0978 230.277 91.629 231.749C92.9505 232.518 93.7765 233.62 94.1379 235.171L97.1185 234.52C96.7128 232.321 95.2715 230.44 92.9822 229.108C88.8317 226.694 84.173 227.735 81.8763 231.641C79.5796 235.547 80.9512 240.097 85.0458 242.479C86.907 243.561 89.2174 244.135 91.2818 243.895L94.3731 238.637L91.6185 237.035L89.3871 240.83Z" fill="white"></path><path d="M104.692 251.222L108.102 252.561L107.366 236.132L104.157 234.873L92.358 246.38L95.6872 247.687L98.1181 245.183L104.636 247.742L104.692 251.222ZM100.135 243.139L104.482 238.666L104.587 244.887L100.135 243.139Z" fill="white"></path><path d="M123.541 256.1L121.327 250.644C123.428 250.266 124.913 248.91 125.42 246.716C126.177 243.434 124.186 240.845 120.257 239.948L113.889 238.494L110.512 253.125L113.916 253.903L114.857 249.827L117.82 250.503L117.988 250.542L119.885 255.265L123.541 256.1ZM121.973 245.929C121.607 247.517 120.334 248.239 118.254 247.764L115.48 247.13L116.657 242.03L119.431 242.664C121.511 243.139 122.345 244.319 121.973 245.929Z" fill="white"></path><path d="M138.108 257.387L141.763 257.661L136.168 242.187L132.728 241.929L124.886 256.395L128.455 256.663L130.031 253.555L137.018 254.079L138.108 257.387ZM131.348 251.009L134.169 245.456L136.121 251.366L131.348 251.009Z" fill="white"></path><path d="M153.452 241.704L154.205 250.788L145.974 242.317L143.095 242.553L144.334 257.515L147.772 257.233L147.02 248.149L155.272 256.618L158.13 256.384L156.89 241.423L153.452 241.704Z" fill="white"></path><path d="M165.481 254.905L168.888 254.14L166.189 242.258L170.9 241.199L170.273 238.438L157.444 241.321L158.071 244.082L162.782 243.024L165.481 254.905Z" fill="white"></path><path d="M175.463 252.35L178.787 251.281L174.143 236.997L170.82 238.066L175.463 252.35Z" fill="white"></path><path d="M182.598 250.128L188.842 247.31C193.339 245.282 195.193 241.195 193.304 237.055C191.416 232.914 187.104 231.61 182.608 233.639L176.363 236.456L182.598 250.128ZM184.595 246.095L180.729 237.619L183.635 236.307C186.364 235.076 188.891 235.891 190.084 238.508C191.278 241.125 190.23 243.552 187.501 244.784L184.595 246.095Z" fill="white"></path><path d="M205.87 238.157C209.799 235.514 210.862 230.838 208.338 227.125C205.813 223.412 201.054 222.652 197.125 225.296C193.178 227.951 192.145 232.633 194.657 236.328C197.169 240.023 201.923 240.812 205.87 238.157ZM204.203 235.706C201.971 237.208 199.192 236.72 197.586 234.358C195.98 231.995 196.559 229.249 198.792 227.747C201.024 226.245 203.802 226.733 205.409 229.095C207.015 231.458 206.436 234.204 204.203 235.706Z" fill="white"></path><path d="M141.818 235.133C192.187 235.133 233.018 194.325 233.018 143.987C233.018 93.6479 192.187 52.8403 141.818 52.8403C91.4498 52.8403 50.6182 93.6479 50.6182 143.987C50.6182 194.325 91.4498 235.133 141.818 235.133Z" fill="#2D2D2D"></path><path opacity="0.1" d="M141.691 52.8403C115.831 52.8403 92.4843 63.5741 75.8727 80.8034C75.3467 84.7503 75.0545 88.7846 75.0545 92.8771C75.0545 143.152 115.948 183.917 166.382 183.917C192.242 183.917 215.588 173.184 232.2 155.954C232.726 152.007 233.018 147.973 233.018 143.881C233.018 93.6053 192.125 52.8403 141.691 52.8403Z" fill="url(#paint2_linear_1_274)"></path><path d="M86.4 198.981H101.371C112.153 198.981 119.544 192.529 119.544 182.615C119.544 172.702 112.153 166.249 101.371 166.249H86.4V198.981ZM94.0269 192.762V172.468H100.995C107.539 172.468 111.823 176.35 111.823 182.615C111.823 188.881 107.539 192.762 100.995 192.762H94.0269Z" fill="white"></path><path d="M125.296 198.981H132.923V166.249H125.296V198.981Z" fill="white"></path><path d="M165.366 198.981H173.37L158.634 166.249H151.101L136.412 198.981H144.228L147.147 191.967H162.447L165.366 198.981ZM149.595 186.216L154.821 173.684L160.046 186.216H149.595Z" fill="white"></path><path d="M187.617 199.543C197.033 199.543 201.6 194.867 201.6 189.396C201.6 177.378 182.439 181.54 182.439 175.508C182.439 173.45 184.181 171.767 188.7 171.767C191.619 171.767 194.773 172.609 197.834 174.339L200.188 168.587C197.127 166.67 192.89 165.688 188.747 165.688C179.378 165.688 174.859 170.317 174.859 175.882C174.859 188.04 194.02 183.831 194.02 189.957C194.02 191.967 192.184 193.464 187.664 193.464C183.71 193.464 179.567 192.061 176.789 190.05L174.2 195.755C177.119 197.999 182.392 199.543 187.617 199.543Z" fill="white"></path><path d="M107.345 75.4099V103.476H123.923V90.4695H150.63L121.735 155.271H141.996L171.927 87.3891V75.4099H107.345Z" fill="white"></path><path d="M34.9091 138.778L38.1429 145.064L45.3818 146.073L40.1454 150.965L41.3767 157.876L34.9091 154.619L28.4415 157.876L29.6727 150.965L24.4364 146.073L31.6753 145.064L34.9091 138.778Z" fill="white"></path><path d="M248.735 138.778L251.971 145.064L259.2 146.073L253.975 150.965L255.207 157.876L248.735 154.619L242.248 157.876L243.495 150.965L238.255 146.073L245.484 145.064L248.735 138.778Z" fill="white"></path><defs><linearGradient id="paint0_linear_1_274" x1="141.804" y1="0.771376" x2="141.804" y2="287.202" gradientUnits="userSpaceOnUse"><stop stop-color="#E9AB27"></stop><stop offset="1" stop-color="#E6C83F"></stop></linearGradient><linearGradient id="paint1_linear_1_274" x1="20.0727" y1="143.987" x2="263.564" y2="143.987" gradientUnits="userSpaceOnUse"><stop stop-color="#E9AB27"></stop><stop offset="1" stop-color="#E6C83F"></stop></linearGradient><linearGradient id="paint2_linear_1_274" x1="196.245" y1="28.8095" x2="157.073" y2="112.444" gradientUnits="userSpaceOnUse"><stop stop-opacity="0"></stop><stop offset="0.14" stop-color="#030303" stop-opacity="0.01"></stop><stop offset="0.27" stop-color="#0E0E0E" stop-opacity="0.06"></stop><stop offset="0.39" stop-color="#202020" stop-opacity="0.13"></stop><stop offset="0.51" stop-color="#3A3A3A" stop-opacity="0.23"></stop><stop offset="0.63" stop-color="#5A5A5A" stop-opacity="0.36"></stop><stop offset="0.74" stop-color="#838383" stop-opacity="0.52"></stop><stop offset="0.85" stop-color="#B3B3B3" stop-opacity="0.7"></stop><stop offset="0.96" stop-color="#E9E9E9" stop-opacity="0.92"></stop><stop offset="1" stop-color="white"></stop></linearGradient></defs></svg>