<svg width="64" height="64" viewBox="0 0 64 64" fill="none" xmlns="http://www.w3.org/2000/svg">
<rect width="64" height="64" rx="14" fill="#FFBD59"/>
<g clip-path="url(#clip0_56_110)">
<path d="M45.8453 18.2097C45.514 18.2097 45.2454 18.4784 45.2454 18.8097V39.5063H22.3278V35.13C22.3278 34.7986 22.0591 34.53 21.7278 34.53C21.3964 34.53 21.1278 34.7986 21.1278 35.13V39.5502C20.2052 39.6836 19.3796 40.1198 18.7548 40.7546V18.173C18.7548 16.7392 19.7751 15.5392 21.1278 15.2609V17.5184C21.1278 17.8497 21.3965 18.1183 21.7278 18.1183C22.0592 18.1183 22.3278 17.8497 22.3278 17.5184V15.2H45.2454V16.8098C45.2453 17.1411 45.514 17.4097 45.8453 17.4097C46.1767 17.4097 46.4452 17.1411 46.4452 16.8098V14.6C46.4452 14.2686 46.1766 14 45.8453 14H21.7277C19.4267 14 17.5548 15.872 17.5548 18.173V43.676C17.5548 43.6771 17.5547 43.6781 17.5547 43.6791C17.5547 44.1205 17.6237 44.5553 17.7593 44.971C17.9614 45.5932 18.3133 46.1671 18.7771 46.6309C19.5661 47.4188 20.6138 47.8527 21.7275 47.8527H22.5796V49.4C22.5796 49.6182 22.6979 49.8191 22.8887 49.9248C23.0793 50.0305 23.3124 50.0245 23.4976 49.9088L25.7395 48.5075L27.9815 49.9088C28.0786 49.9696 28.189 50 28.2996 50C28.3995 50 28.4998 49.975 28.5904 49.9248C28.7813 49.819 28.8995 49.6181 28.8995 49.3999V47.8527H45.8451C46.1764 47.8527 46.445 47.584 46.445 47.2527L46.4452 18.8097C46.4454 18.4784 46.1767 18.2097 45.8453 18.2097ZM27.6995 47.2519C27.6995 47.2521 27.6995 47.2524 27.6995 47.2527C27.6995 47.253 27.6995 47.2532 27.6995 47.2534V48.3173L26.0575 47.2911C25.9602 47.2303 25.8498 47.1999 25.7395 47.1999C25.6292 47.1999 25.5188 47.2303 25.4215 47.2911L23.7794 48.3173V43.0399H27.6994V47.2519H27.6995ZM29.4995 41.84H21.7395C21.4082 41.84 21.1396 42.1087 21.1396 42.44C21.1396 42.7714 21.4082 43.04 21.7395 43.04H22.5796V44.1856H20.9395C20.6081 44.1856 20.3395 44.4542 20.3395 44.7856C20.3395 45.1169 20.6082 45.3855 20.9395 45.3855H22.5795V46.6526H21.7274C20.9341 46.6526 20.1874 46.3433 19.6253 45.782C19.2951 45.4518 19.0445 45.043 18.9002 44.5993C18.8036 44.3033 18.7546 43.9937 18.7546 43.679C18.7547 42.0398 20.0883 40.7062 21.7274 40.7062H42.5659V41.8399H33.1795C32.8481 41.8399 32.5795 42.1085 32.5795 42.4399C32.5795 42.7712 32.8482 43.0398 33.1795 43.0398H42.5659V44.1854H28.8995V43.0398H29.4995C29.8309 43.0398 30.0995 42.7712 30.0995 42.4399C30.0995 42.1086 29.8309 41.84 29.4995 41.84ZM45.245 46.6527H28.8995V45.3856H43.1659C43.4973 45.3856 43.7658 45.1169 43.7658 44.7856V40.7064H45.2449L45.245 46.6527Z" fill="black" stroke="black" stroke-width="0.00064"/>
<path d="M21.7277 18.96C21.3963 18.96 21.1277 19.2286 21.1277 19.5599V32.9607C21.1277 33.292 21.3964 33.5606 21.7277 33.5606C22.0591 33.5606 22.3277 33.292 22.3277 32.9607V19.56C22.3278 19.2286 22.0591 18.96 21.7277 18.96Z" fill="black" stroke="black" stroke-width="0.00064"/>
<path d="M43.0379 19.5853C41.8289 19.5853 40.8453 18.6017 40.8453 17.3927C40.8453 17.0613 40.5766 16.7927 40.2453 16.7927H27.4554C27.124 16.7927 26.8554 17.0614 26.8554 17.3927C26.8554 18.6017 25.8718 19.5853 24.6628 19.5853C24.3314 19.5853 24.0628 19.854 24.0628 20.1853V34.3789C24.0628 34.7103 24.3315 34.9789 24.6628 34.9789C25.8718 34.9789 26.8554 35.9625 26.8554 37.1715C26.8554 37.5029 27.1241 37.7715 27.4554 37.7715H30.0897C30.4211 37.7715 30.6897 37.5028 30.6897 37.1715C30.6897 36.8402 30.421 36.5716 30.0897 36.5716H28.0023C27.7531 35.1809 26.6534 34.0812 25.2628 33.832V20.7322C26.6534 20.483 27.7531 19.3833 28.0023 17.9927H39.6984C39.9476 19.3833 41.0473 20.483 42.4379 20.7322V33.8321C41.0473 34.0813 39.9476 35.181 39.6984 36.5716H32.0897C31.7583 36.5716 31.4897 36.8403 31.4897 37.1716C31.4897 37.503 31.7584 37.7716 32.0897 37.7716H40.2453C40.5767 37.7716 40.8453 37.5029 40.8453 37.1716C40.8453 35.9626 41.8289 34.979 43.0379 34.979C43.3693 34.979 43.6379 34.7103 43.6379 34.379V20.1854C43.6379 19.854 43.3693 19.5853 43.0379 19.5853Z" fill="black" stroke="black" stroke-width="0.00064"/>
<path d="M37.4503 23.9622H34.4503V20.8822C34.4503 20.5508 34.1816 20.2822 33.8503 20.2822C33.5189 20.2822 33.2503 20.5509 33.2503 20.8822V23.9622H30.2503C29.9189 23.9622 29.6503 24.2308 29.6503 24.5621C29.6503 24.8935 29.919 25.1621 30.2503 25.1621H33.2503V33.6821C33.2503 34.0135 33.519 34.2821 33.8503 34.2821C34.1817 34.2821 34.4503 34.0134 34.4503 33.6821V25.1622H37.4503C37.7817 25.1622 38.0503 24.8935 38.0503 24.5622C38.0503 24.2308 37.7817 23.9622 37.4503 23.9622Z" fill="black" stroke="black" stroke-width="0.00064"/>
</g>
<defs>
<clipPath id="clip0_56_110">
<rect width="36" height="36" fill="white" transform="translate(14 14)"/>
</clipPath>
</defs>
</svg>
