<svg width="25" height="22" viewBox="0 0 25 22" fill="none" xmlns="http://www.w3.org/2000/svg">
<path d="M10.6379 21.466C8.9545 21.4655 7.29522 21.068 5.7964 20.3062C4.29757 19.5445 3.00197 18.4402 2.01603 17.084C1.03009 15.7278 0.381946 14.1585 0.124841 12.505C-0.132264 10.8515 0.00900761 9.16096 0.537051 7.57226C1.06509 5.98355 1.96484 4.54203 3.16238 3.36611C4.35991 2.1902 5.82106 1.31344 7.42579 0.807868C9.03052 0.302297 10.733 0.18234 12.3935 0.457851C14.0539 0.733361 15.6249 1.39648 16.9774 2.39272C17.1584 2.53891 17.2757 2.74887 17.3048 2.97887C17.3339 3.20886 17.2726 3.44116 17.1337 3.62737C16.9948 3.81358 16.789 3.93934 16.5591 3.97847C16.3292 4.01759 16.093 3.96706 15.8997 3.8374C14.3033 2.65946 12.3539 2.05114 10.3666 2.11082C8.37931 2.17049 6.47037 2.89467 4.94849 4.16625C3.42662 5.43782 2.38079 7.18244 1.98014 9.11796C1.5795 11.0535 1.84745 13.0667 2.74068 14.8321C3.63391 16.5976 5.10018 18.0119 6.90237 18.8464C8.70456 19.681 10.7373 19.8869 12.6718 19.431C14.6064 18.975 16.3296 17.8838 17.5629 16.3339C18.7962 14.7839 19.4673 12.8658 19.4679 10.8897C19.4666 10.4269 19.4287 9.96497 19.3547 9.50807C19.3362 9.38987 19.3414 9.26921 19.3699 9.153C19.3984 9.03678 19.4496 8.92727 19.5207 8.83074C19.5917 8.7342 19.6812 8.65252 19.7841 8.59036C19.8869 8.52819 20.001 8.48677 20.1199 8.46845C20.2389 8.45013 20.3603 8.45527 20.4772 8.48357C20.5941 8.51188 20.7043 8.5628 20.8014 8.63343C20.8986 8.70406 20.9807 8.79301 21.0433 8.8952C21.1058 8.9974 21.1475 9.11083 21.1659 9.22904C21.2469 9.77886 21.2847 10.3341 21.2792 10.8897C21.2768 13.694 20.1549 16.3827 18.1598 18.3656C16.1647 20.3486 13.4594 21.4636 10.6379 21.466Z" fill="#FFBD59"/>
<path d="M11.77 14.2656C11.5302 14.2646 11.3006 14.1691 11.1315 14L6.82974 9.72453C6.68137 9.55234 6.60384 9.33084 6.61264 9.10431C6.62145 8.87777 6.71594 8.66288 6.87722 8.50258C7.03851 8.34228 7.25472 8.24836 7.48265 8.23961C7.71058 8.23086 7.93343 8.30792 8.10668 8.45538L11.77 12.0918L22.6784 1.25452C22.8516 1.10706 23.0745 1.03001 23.3024 1.03876C23.5303 1.04751 23.7465 1.14142 23.9078 1.30172C24.0691 1.46203 24.1636 1.67692 24.1724 1.90345C24.1812 2.12999 24.1037 2.35148 23.9553 2.52367L12.4085 14C12.2394 14.1691 12.0098 14.2646 11.77 14.2656Z" fill="black"/>
</svg>
