<svg width="24" height="24" viewBox="0 0 24 24" fill="none" xmlns="http://www.w3.org/2000/svg">
<path d="M23.4397 9.715H22.5V9.66659H12V14.3333H18.5934C17.6315 17.0498 15.0467 18.9999 12 18.9999C8.13425 18.9999 5 15.8657 5 11.9999C5 8.13417 8.13425 4.99992 12 4.99992C13.7844 4.99992 15.4078 5.67309 16.6439 6.77267L19.9438 3.47275C17.8602 1.53084 15.073 0.333252 12 0.333252C5.55708 0.333252 0.333328 5.557 0.333328 11.9999C0.333328 18.4428 5.55708 23.6666 12 23.6666C18.4429 23.6666 23.6667 18.4428 23.6667 11.9999C23.6667 11.2177 23.5862 10.4541 23.4397 9.715Z" fill="#FFC107"/>
<path d="M1.6785 6.56967L5.51158 9.38075C6.54875 6.81292 9.06058 4.99992 12 4.99992C13.7844 4.99992 15.4078 5.67308 16.6439 6.77267L19.9438 3.47275C17.8602 1.53084 15.073 0.333252 12 0.333252C7.51883 0.333252 3.63266 2.86317 1.6785 6.56967Z" fill="#FF3D00"/>
<path d="M12 23.6666C15.0135 23.6666 17.7517 22.5133 19.8219 20.6379L16.2111 17.5824C15.0398 18.4697 13.5838 18.9999 12 18.9999C8.9655 18.9999 6.38892 17.065 5.41825 14.3647L1.61375 17.296C3.54459 21.0742 7.46575 23.6666 12 23.6666Z" fill="#4CAF50"/>
<path d="M23.4398 9.71516H22.5V9.66675H12V14.3334H18.5934C18.1314 15.6383 17.292 16.7636 16.2093 17.5832L16.2111 17.582L19.8219 20.6375C19.5664 20.8697 23.6667 17.8334 23.6667 12.0001C23.6667 11.2178 23.5862 10.4542 23.4398 9.71516Z" fill="#1976D2"/>
</svg>
