<svg width="25" height="25" viewBox="0 0 25 25" fill="none" xmlns="http://www.w3.org/2000/svg">
<g clip-path="url(#clip0_88_8)">
<path fill-rule="evenodd" clip-rule="evenodd" d="M21.6568 16.1577C21.4513 21.0654 17.4092 24.9815 12.451 24.9815C7.36128 24.9815 3.2353 20.7168 3.2353 15.7658C3.2353 15.1041 3.22343 13.7815 4.21569 11.5502C4.80951 10.2148 5.18196 9.37584 5.39216 8.60898C5.50765 8.18751 5.73226 7.5179 6.37255 8.60898C6.7501 9.25231 6.76471 10.1776 6.76471 10.1776C6.76471 10.1776 8.16941 9.09966 9.11765 7.04035C10.5077 4.02143 9.39863 2.21682 9.01961 0.961919C8.88843 0.527801 8.80608 -0.252395 9.70589 0.0795661C10.6227 0.417899 13.0467 2.11466 14.3137 3.9031C16.1221 6.45555 16.7647 8.9031 16.7647 8.9031C16.7647 8.9031 17.3437 8.18447 17.549 7.43251C17.7809 6.58339 17.7843 5.74241 18.5293 6.64829C19.2378 7.50976 20.2901 9.12868 20.8824 10.6678C21.9577 13.4628 21.6568 16.1577 21.6568 16.1577Z" fill="url(#paint0_linear_88_8)"/>
<path fill-rule="evenodd" clip-rule="evenodd" d="M12.451 24.9813C8.93147 24.9813 6.07843 22.1283 6.07843 18.6087C6.07843 16.4851 6.93421 15.1958 8.71529 13.4474C9.85569 12.3279 10.923 10.9529 11.3767 10.0166C11.466 9.83228 11.6692 8.87179 12.4528 9.99639C12.8639 10.5862 13.5083 11.6351 13.9216 12.5303C14.6339 14.0737 14.8039 15.5695 14.8039 15.5695C14.8039 15.5695 15.5021 15.1582 15.9804 14.0989C16.1346 13.7576 16.4464 12.4652 17.3179 13.7574C17.9575 14.7056 18.836 16.4105 18.8235 18.6087C18.8235 22.1283 15.9704 24.9813 12.451 24.9813Z" fill="#FC9502"/>
<path fill-rule="evenodd" clip-rule="evenodd" d="M12.549 18.0205C13.4559 18.0205 13.4559 19.6998 14.6078 21.9421C15.3749 23.4351 14.2275 24.9813 12.549 24.9813C10.8705 24.9813 10 23.6206 10 21.9421C10 20.2636 11.6422 18.0205 12.549 18.0205Z" fill="#FCE202"/>
</g>
<defs>
<linearGradient id="paint0_linear_88_8" x1="12.4648" y1="25" x2="12.4648" y2="0.0183895" gradientUnits="userSpaceOnUse">
<stop offset="0.886509" stop-color="#FF3D00"/>
</linearGradient>
<clipPath id="clip0_88_8">
<rect width="25" height="25" fill="white"/>
</clipPath>
</defs>
</svg>
