<svg width="64" height="64" viewBox="0 0 64 64" fill="none" xmlns="http://www.w3.org/2000/svg">
<rect width="64" height="64" rx="14" fill="#FFBD59"/>
<g clip-path="url(#clip0_56_148)">
<path d="M19.8265 48.2128C19.1573 47.3874 18.6669 46.4063 18.4085 45.3757C18.3256 45.0455 17.9909 44.8449 17.6605 44.9277C17.3302 45.0105 17.1297 45.3454 17.2125 45.6757C17.5144 46.8795 18.0872 48.0253 18.8688 48.9894C18.9906 49.1396 19.1685 49.2176 19.348 49.2176C19.4844 49.2176 19.6217 49.1725 19.7358 49.0799C20.0003 48.8655 20.0409 48.4773 19.8265 48.2128Z" fill="black"/>
<path d="M29.1269 37.5815C28.8595 37.5815 28.6043 37.6349 28.3711 37.7311V31.9593C28.3711 30.9175 27.5235 30.0699 26.4817 30.0699C26.248 30.0699 26.0243 30.1128 25.8176 30.1907C25.7334 29.2262 24.9219 28.4669 23.936 28.4669C22.8941 28.4669 22.0466 29.3145 22.0466 30.3562V30.5696C21.842 30.4936 21.6209 30.4518 21.3901 30.4518C20.3483 30.4518 19.5008 31.2994 19.5008 32.3411V33.1473C19.2962 33.0713 19.0752 33.0296 18.8445 33.0296C17.8026 33.0296 16.9551 33.8771 16.9551 34.9189V43.5903C16.9551 43.9308 17.2311 44.2068 17.5715 44.2068C17.912 44.2068 18.188 43.9308 18.188 43.5903V34.9189C18.188 34.557 18.4824 34.2625 18.8445 34.2625C19.2064 34.2625 19.5008 34.557 19.5008 34.9189V40.4901C19.5008 40.8306 19.7768 41.1065 20.1173 41.1065C20.4577 41.1065 20.7337 40.8306 20.7337 40.4901V32.3411C20.7337 31.9792 21.0282 31.6848 21.3902 31.6848C21.7522 31.6848 22.0466 31.9792 22.0466 32.3411V39.9572C22.0466 40.2977 22.3226 40.5736 22.663 40.5736C23.0035 40.5736 23.2794 40.2977 23.2794 39.9572V30.3563C23.2794 29.9943 23.5739 29.6999 23.9359 29.6999C24.2978 29.6999 24.5922 29.9944 24.5922 30.3563V31.9593V40.3716C24.5922 40.7121 24.8682 40.9881 25.2087 40.9881C25.5491 40.9881 25.8251 40.7121 25.8251 40.3716V31.9593C25.8251 31.5973 26.1196 31.3028 26.4815 31.3028C26.8434 31.3028 27.138 31.5973 27.138 31.9593V43.099C27.138 43.4395 27.414 43.7155 27.7544 43.7155C28.0949 43.7155 28.3708 43.4395 28.3708 43.099V39.5703C28.3708 39.1535 28.7099 38.8144 29.1267 38.8144C29.5435 38.8144 29.8826 39.1535 29.8826 39.5703V44.0149C29.8826 45.9209 28.5291 47.5905 26.6644 47.9851C26.3313 48.0555 26.1184 48.3826 26.1889 48.7158C26.2503 49.0058 26.5062 49.2048 26.7913 49.2047C26.8336 49.2047 26.8765 49.2004 26.9196 49.1912C29.3509 48.6769 31.1156 46.5 31.1156 44.0149V39.5702C31.1157 38.4736 30.2235 37.5815 29.1269 37.5815Z" fill="black"/>
<path d="M45.1742 33.0296C44.9435 33.0296 44.7223 33.0713 44.5178 33.1473V32.3411C44.5178 31.2993 43.6702 30.4518 42.6284 30.4518C42.3977 30.4518 42.1766 30.4936 41.9721 30.5696V30.3562C41.9721 29.3144 41.1245 28.4669 40.0827 28.4669C39.0967 28.4669 38.2852 29.2262 38.201 30.1908C37.9943 30.1129 37.7705 30.07 37.5369 30.07C36.4951 30.07 35.6476 30.9175 35.6476 31.9593V37.7312C35.4145 37.635 35.1593 37.5815 34.8918 37.5815C33.7952 37.5815 32.9031 38.4737 32.9031 39.5703V44.0149C32.9031 46.4999 34.6678 48.677 37.099 49.1913C37.142 49.2004 37.185 49.2048 37.2273 49.2048C37.5124 49.2048 37.7684 49.0059 37.8297 48.7158C37.9002 48.3827 37.6873 48.0556 37.3543 47.9851C35.4895 47.5907 34.1361 45.921 34.1361 44.015V39.5703C34.1361 39.1535 34.4751 38.8145 34.8919 38.8145C35.3087 38.8145 35.6478 39.1535 35.6478 39.5703V43.0991C35.6478 43.4396 35.9238 43.7156 36.2642 43.7156C36.6047 43.7156 36.8806 43.4396 36.8806 43.0991V31.9593C36.8806 31.5973 37.1751 31.3028 37.537 31.3028C37.8989 31.3028 38.1935 31.5973 38.1935 31.9593V40.3716C38.1935 40.7121 38.4694 40.9881 38.8099 40.9881C39.1503 40.9881 39.4263 40.7121 39.4263 40.3716V31.9593V30.3563C39.4263 29.9943 39.7208 29.6999 40.0827 29.6999C40.4446 29.6999 40.7391 29.9944 40.7391 30.3563V36.9364C40.7391 37.2768 41.0151 37.5528 41.3556 37.5528C41.696 37.5528 41.972 37.2768 41.972 36.9364V32.3412C41.972 31.9792 42.2665 31.6848 42.6284 31.6848C42.9903 31.6848 43.2849 31.9793 43.2849 32.3412V40.4902C43.2849 40.8306 43.5608 41.1066 43.9013 41.1066C44.2417 41.1066 44.5177 40.8306 44.5177 40.4902V34.9191C44.5177 34.5571 44.8122 34.2626 45.1741 34.2626C45.536 34.2626 45.8305 34.557 45.8305 34.9191V43.5905C45.8305 45.2681 45.2486 46.9097 44.192 48.2129C43.9776 48.4774 44.0182 48.8655 44.2826 49.0799C44.3969 49.1724 44.5341 49.2176 44.6704 49.2175C44.8499 49.2175 45.0278 49.1395 45.1496 48.9894C46.3838 47.4672 47.0634 45.5499 47.0634 43.5905V34.9189C47.0635 33.8771 46.216 33.0296 45.1742 33.0296Z" fill="black"/>
<path d="M41.3556 38.0046C41.0151 38.0046 40.7391 38.2806 40.7391 38.6211V39.957C40.7391 40.2975 41.0151 40.5734 41.3556 40.5734C41.696 40.5734 41.972 40.2975 41.972 39.957V38.6211C41.9721 38.2807 41.696 38.0046 41.3556 38.0046Z" fill="black"/>
<path d="M32.0416 14.7825C31.7011 14.7825 31.4252 15.0584 31.4252 15.3989V23.0424C31.4252 23.3829 31.7011 23.6589 32.0416 23.6589C32.382 23.6589 32.658 23.3829 32.658 23.0424V15.3989C32.658 15.0584 32.382 14.7825 32.0416 14.7825Z" fill="black"/>
<path d="M26.402 20.8945L25.6805 18.8849C25.5656 18.5645 25.2127 18.3979 24.8921 18.513C24.5716 18.6279 24.4051 18.981 24.5201 19.3015L25.2414 21.311C25.3318 21.5626 25.5688 21.7193 25.8217 21.7193C25.8908 21.7193 25.9612 21.7076 26.03 21.6829C26.3504 21.5679 26.517 21.2149 26.402 20.8945Z" fill="black"/>
<path d="M19.8136 23.0817L17.6019 20.2841C17.3908 20.017 17.0031 19.9717 16.736 20.1828C16.4689 20.394 16.4236 20.7816 16.6348 21.0487L18.8465 23.8463C18.9682 24.0003 19.1484 24.0805 19.3305 24.0805C19.4643 24.0805 19.5993 24.0371 19.7123 23.9476C19.9795 23.7364 20.0247 23.3488 19.8136 23.0817Z" fill="black"/>
<path d="M21.4296 25.1258L20.9043 24.4614C20.6933 24.1944 20.3056 24.149 20.0384 24.3602C19.7715 24.5713 19.7261 24.959 19.9373 25.2261L20.4625 25.8905C20.5841 26.0443 20.7644 26.1246 20.9465 26.1246C21.0803 26.1246 21.2153 26.0812 21.3283 25.9917C21.5955 25.7806 21.6407 25.3929 21.4296 25.1258Z" fill="black"/>
<path d="M39.191 18.513C38.8706 18.398 38.5177 18.5644 38.4026 18.8849L37.6812 20.8944C37.5661 21.2149 37.7327 21.5678 38.0532 21.6829C38.1219 21.7076 38.1923 21.7194 38.2614 21.7194C38.5142 21.7194 38.7512 21.5626 38.8417 21.311L39.563 19.3015C39.678 18.9811 39.5115 18.6281 39.191 18.513Z" fill="black"/>
<path d="M49.8873 26.4655C49.691 26.1872 49.3064 26.1209 49.0282 26.317L47.2834 27.5477C47.0052 27.744 46.9388 28.1286 47.135 28.4068C47.2551 28.577 47.4457 28.668 47.6393 28.668C47.762 28.668 47.886 28.6315 47.994 28.5552L49.7388 27.3246C50.0171 27.1283 50.0835 26.7437 49.8873 26.4655Z" fill="black"/>
<path d="M16.693 27.4747L14.9873 26.1904C14.7154 25.9856 14.3289 26.0401 14.124 26.312C13.9193 26.584 13.9737 26.9705 14.2457 27.1753L15.9513 28.4596C16.0624 28.5432 16.1926 28.5836 16.3216 28.5836C16.5085 28.5836 16.6933 28.4988 16.8145 28.338C17.0194 28.0659 16.9649 27.6794 16.693 27.4747Z" fill="black"/>
<path d="M47.347 20.1827C47.0799 19.9716 46.6924 20.0169 46.4811 20.284L45.8307 21.1066C45.6197 21.3737 45.6649 21.7614 45.9321 21.9725C46.0453 22.062 46.1801 22.1054 46.3139 22.1054C46.4959 22.1054 46.6763 22.0251 46.7979 21.8713L47.4483 21.0486C47.6594 20.7815 47.6142 20.3939 47.347 20.1827Z" fill="black"/>
<path d="M45.7091 22.2546C45.4421 22.0435 45.0543 22.0888 44.8432 22.3559L42.6535 25.1258C42.4424 25.3929 42.4877 25.7806 42.7548 25.9917C42.868 26.0812 43.0028 26.1246 43.1366 26.1246C43.3187 26.1246 43.499 26.0443 43.6206 25.8905L45.8104 23.1205C46.0215 22.8534 45.9761 22.4657 45.7091 22.2546Z" fill="black"/>
</g>
<defs>
<clipPath id="clip0_56_148">
<rect width="36" height="36" fill="white" transform="translate(14 14)"/>
</clipPath>
</defs>
</svg>
