<svg id="visual" viewBox="0 0 960 540" width="960" height="540" xmlns="http://www.w3.org/2000/svg" xmlns:xlink="http://www.w3.org/1999/xlink" version="1.1"><rect x="0" y="0" width="960" height="540" fill="#FFBD59"></rect><path d="M0 353L17.8 355.3C35.7 357.7 71.3 362.3 106.8 358.5C142.3 354.7 177.7 342.3 213.2 337.7C248.7 333 284.3 336 320 345C355.7 354 391.3 369 426.8 375.7C462.3 382.3 497.7 380.7 533.2 370.8C568.7 361 604.3 343 640 335.7C675.7 328.3 711.3 331.7 746.8 330.7C782.3 329.7 817.7 324.3 853.2 330C888.7 335.7 924.3 352.3 942.2 360.7L960 369L960 541L942.2 541C924.3 541 888.7 541 853.2 541C817.7 541 782.3 541 746.8 541C711.3 541 675.7 541 640 541C604.3 541 568.7 541 533.2 541C497.7 541 462.3 541 426.8 541C391.3 541 355.7 541 320 541C284.3 541 248.7 541 213.2 541C177.7 541 142.3 541 106.8 541C71.3 541 35.7 541 17.8 541L0 541Z" fill="#7c7c7c"></path><path d="M0 382L17.8 379.2C35.7 376.3 71.3 370.7 106.8 364C142.3 357.3 177.7 349.7 213.2 351C248.7 352.3 284.3 362.7 320 375.3C355.7 388 391.3 403 426.8 409.8C462.3 416.7 497.7 415.3 533.2 412.3C568.7 409.3 604.3 404.7 640 399C675.7 393.3 711.3 386.7 746.8 387.7C782.3 388.7 817.7 397.3 853.2 399.3C888.7 401.3 924.3 396.7 942.2 394.3L960 392L960 541L942.2 541C924.3 541 888.7 541 853.2 541C817.7 541 782.3 541 746.8 541C711.3 541 675.7 541 640 541C604.3 541 568.7 541 533.2 541C497.7 541 462.3 541 426.8 541C391.3 541 355.7 541 320 541C284.3 541 248.7 541 213.2 541C177.7 541 142.3 541 106.8 541C71.3 541 35.7 541 17.8 541L0 541Z" fill="#9b9b9b"></path><path d="M0 437L17.8 430.8C35.7 424.7 71.3 412.3 106.8 413C142.3 413.7 177.7 427.3 213.2 432.2C248.7 437 284.3 433 320 426.2C355.7 419.3 391.3 409.7 426.8 403.7C462.3 397.7 497.7 395.3 533.2 396.3C568.7 397.3 604.3 401.7 640 400.3C675.7 399 711.3 392 746.8 397C782.3 402 817.7 419 853.2 427.3C888.7 435.7 924.3 435.3 942.2 435.2L960 435L960 541L942.2 541C924.3 541 888.7 541 853.2 541C817.7 541 782.3 541 746.8 541C711.3 541 675.7 541 640 541C604.3 541 568.7 541 533.2 541C497.7 541 462.3 541 426.8 541C391.3 541 355.7 541 320 541C284.3 541 248.7 541 213.2 541C177.7 541 142.3 541 106.8 541C71.3 541 35.7 541 17.8 541L0 541Z" fill="#bbbbbb"></path><path d="M0 483L17.8 482.8C35.7 482.7 71.3 482.3 106.8 482.7C142.3 483 177.7 484 213.2 480.2C248.7 476.3 284.3 467.7 320 462.2C355.7 456.7 391.3 454.3 426.8 457.3C462.3 460.3 497.7 468.7 533.2 466C568.7 463.3 604.3 449.7 640 446.8C675.7 444 711.3 452 746.8 453.3C782.3 454.7 817.7 449.3 853.2 446C888.7 442.7 924.3 441.3 942.2 440.7L960 440L960 541L942.2 541C924.3 541 888.7 541 853.2 541C817.7 541 782.3 541 746.8 541C711.3 541 675.7 541 640 541C604.3 541 568.7 541 533.2 541C497.7 541 462.3 541 426.8 541C391.3 541 355.7 541 320 541C284.3 541 248.7 541 213.2 541C177.7 541 142.3 541 106.8 541C71.3 541 35.7 541 17.8 541L0 541Z" fill="#dddddd"></path><path d="M0 499L17.8 500.3C35.7 501.7 71.3 504.3 106.8 502.8C142.3 501.3 177.7 495.7 213.2 491C248.7 486.3 284.3 482.7 320 482C355.7 481.3 391.3 483.7 426.8 490.3C462.3 497 497.7 508 533.2 510C568.7 512 604.3 505 640 501.7C675.7 498.3 711.3 498.7 746.8 498.3C782.3 498 817.7 497 853.2 493.5C888.7 490 924.3 484 942.2 481L960 478L960 541L942.2 541C924.3 541 888.7 541 853.2 541C817.7 541 782.3 541 746.8 541C711.3 541 675.7 541 640 541C604.3 541 568.7 541 533.2 541C497.7 541 462.3 541 426.8 541C391.3 541 355.7 541 320 541C284.3 541 248.7 541 213.2 541C177.7 541 142.3 541 106.8 541C71.3 541 35.7 541 17.8 541L0 541Z" fill="#ffffff"></path></svg>