<svg width="57" height="46" viewBox="0 0 57 46" fill="none" xmlns="http://www.w3.org/2000/svg">
<path d="M26.8734 2.27365C27.6711 1.15857 29.3289 1.15857 30.1266 2.27365L50.9184 31.3363C51.8653 32.6599 50.9192 34.5 49.2918 34.5H7.70822C6.0808 34.5 5.13471 32.6599 6.08162 31.3363L26.8734 2.27365Z" fill="#F5CD29"/>
<path d="M29.7031 13L29.3438 24.1016H26.1328L25.7734 13H29.7031ZM27.7344 29.2266C27.1771 29.2266 26.6979 29.0286 26.2969 28.6328C25.901 28.237 25.7031 27.7578 25.7031 27.1953C25.7031 26.6432 25.901 26.1719 26.2969 25.7812C26.6979 25.3854 27.1771 25.1875 27.7344 25.1875C28.2708 25.1875 28.7422 25.3854 29.1484 25.7812C29.5599 26.1719 29.7656 26.6432 29.7656 27.1953C29.7656 27.5703 29.6693 27.9115 29.4766 28.2188C29.2891 28.526 29.0417 28.7708 28.7344 28.9531C28.4323 29.1354 28.099 29.2266 27.7344 29.2266Z" fill="black"/>
</svg>
